<?xml version="1.0" standalone="no"?>
<!DOCTYPE svg PUBLIC "-//W3C//DTD SVG 20010904//EN"
 "http://www.w3.org/TR/2001/REC-SVG-20010904/DTD/svg10.dtd">
<svg version="1.0" xmlns="http://www.w3.org/2000/svg"
 width="300.000000pt" height="300.000000pt" viewBox="0 0 300.000000 300.000000"
 preserveAspectRatio="xMidYMid meet">
<metadata>
Created by potrace 1.11, written by Peter Selinger 2001-2013
</metadata>
<g transform="translate(0.000000,300.000000) scale(0.100000,-0.100000)"
fill="#000000" stroke="none">
<path fill="#33ccff" d="M1470 2598 c-32 -95 -127 -259 -320 -553 -247 -377 -318 -506 -375
-678 -41 -124 -50 -205 -35 -319 42 -340 254 -604 560 -700 107 -33 283 -33
390 0 306 96 518 360 560 700 15 114 6 195 -35 319 -57 172 -126 297 -375 678
-226 345 -295 469 -336 598 -9 26 -11 23 -34 -45z"/>
</g>
</svg>
